<svg width="18" height="18" viewBox="0 0 18 18" fill="none" xmlns="http://www.w3.org/2000/svg">
<path d="M15.3235 6.57031H8.1618C7.28285 6.57031 6.57031 7.28285 6.57031 8.1618V15.3235C6.57031 16.2024 7.28285 16.915 8.1618 16.915H15.3235C16.2024 16.915 16.915 16.2024 16.915 15.3235V8.1618C16.915 7.28285 16.2024 6.57031 15.3235 6.57031Z" stroke="#C6CED6" stroke-width="1.5" stroke-linecap="round" stroke-linejoin="round"/>
<path d="M3.38723 11.3447H2.59149C2.1694 11.3447 1.7646 11.177 1.46614 10.8785C1.16767 10.5801 1 10.1753 1 9.75318V2.59149C1 2.1694 1.16767 1.7646 1.46614 1.46614C1.7646 1.16767 2.1694 1 2.59149 1H9.75318C10.1753 1 10.5801 1.16767 10.8785 1.46614C11.177 1.7646 11.3447 2.1694 11.3447 2.59149V3.38723" stroke="#C6CED6" stroke-width="1.5" stroke-linecap="round" stroke-linejoin="round"/>
</svg>
