<svg width="30" height="33" viewBox="0 0 30 33" fill="none" xmlns="http://www.w3.org/2000/svg">
<path d="M2 7.80005H4.9H28.1" stroke="#D63532" stroke-width="3" stroke-linecap="round" stroke-linejoin="round"/>
<path d="M9.2499 7.8V4.9C9.2499 4.13087 9.55544 3.39325 10.0993 2.84939C10.6431 2.30553 11.3808 2 12.1499 2H17.9499C18.719 2 19.4567 2.30553 20.0005 2.84939C20.5444 3.39325 20.8499 4.13087 20.8499 4.9V7.8M25.1999 7.8V28.1C25.1999 28.8691 24.8944 29.6068 24.3505 30.1506C23.8067 30.6945 23.069 31 22.2999 31H7.7999C7.03077 31 6.29315 30.6945 5.74929 30.1506C5.20544 29.6068 4.8999 28.8691 4.8999 28.1V7.8H25.1999Z" stroke="#D63532" stroke-width="3" stroke-linecap="round" stroke-linejoin="round"/>
<path d="M12.1499 15.05V23.75" stroke="#D63532" stroke-width="3" stroke-linecap="round" stroke-linejoin="round"/>
<path d="M17.9497 15.05V23.75" stroke="#D63532" stroke-width="3" stroke-linecap="round" stroke-linejoin="round"/>
</svg>
