<svg width="36" height="36" viewBox="0 0 36 36" fill="none" xmlns="http://www.w3.org/2000/svg">
<path d="M18 36C27.9411 36 36 27.9411 36 18C36 8.05887 27.9411 0 18 0C8.05887 0 0 8.05887 0 18C0 27.9411 8.05887 36 18 36Z" fill="#FFD983"/>
<path d="M10.5 12C12.433 12 14 10.433 14 8.5C14 6.567 12.433 5 10.5 5C8.567 5 7 6.567 7 8.5C7 10.433 8.567 12 10.5 12Z" fill="#FFCC4D"/>
<path d="M20 20C21.6569 20 23 18.6569 23 17C23 15.3431 21.6569 14 20 14C18.3431 14 17 15.3431 17 17C17 18.6569 18.3431 20 20 20Z" fill="#FFCC4D"/>
<path d="M24.5 32C26.433 32 28 30.433 28 28.5C28 26.567 26.433 25 24.5 25C22.567 25 21 26.567 21 28.5C21 30.433 22.567 32 24.5 32Z" fill="#FFCC4D"/>
<path d="M22 7C23.1046 7 24 6.10457 24 5C24 3.89543 23.1046 3 22 3C20.8954 3 20 3.89543 20 5C20 6.10457 20.8954 7 22 7Z" fill="#FFCC4D"/>
<path d="M3 19C3.55228 19 4 18.5523 4 18C4 17.4477 3.55228 17 3 17C2.44772 17 2 17.4477 2 18C2 18.5523 2.44772 19 3 19Z" fill="#FFCC4D"/>
<path d="M30 10C30.5523 10 31 9.55228 31 9C31 8.44772 30.5523 8 30 8C29.4477 8 29 8.44772 29 9C29 9.55228 29.4477 10 30 10Z" fill="#FFCC4D"/>
<path d="M32 21C33.1046 21 34 20.1046 34 19C34 17.8954 33.1046 17 32 17C30.8954 17 30 17.8954 30 19C30 20.1046 30.8954 21 32 21Z" fill="#FFCC4D"/>
<path d="M10 25C11.1046 25 12 24.1046 12 23C12 21.8954 11.1046 21 10 21C8.89543 21 8 21.8954 8 23C8 24.1046 8.89543 25 10 25Z" fill="#FFCC4D"/>
<path d="M27.6953 30H24.4609V16.5234C24.4609 14.5703 24.0391 13.0547 23.1953 11.9766C22.3516 10.8984 20.9844 10.3594 19.0938 10.3594C17.9062 10.3594 16.8281 10.6328 15.8594 11.1797C14.9062 11.7266 14.0938 12.4609 13.4219 13.3828C12.75 14.2891 12.2344 15.3359 11.875 16.5234C11.5312 17.6953 11.3594 18.9219 11.3594 20.2031V30H8.14844V8.15625H11.3594V13.6406C12.9062 9.64062 15.6641 7.64062 19.6328 7.64062C25.0078 7.64062 27.6953 10.6016 27.6953 16.5234V30Z" fill="black"/>
</svg>
