<svg width="36" height="36" viewBox="0 0 36 36" fill="none" xmlns="http://www.w3.org/2000/svg">
<path d="M29.536 0C31.224 18.224 19.224 31.224 0 29.536C8.199 37.253 21.091 37.124 29.107 29.107C37.124 21.091 37.254 8.199 29.536 0Z" fill="#FFD983"/>
<path d="M29.929 15.139C29.476 15.593 29.476 16.328 29.929 16.783C30.383 17.236 31.118 17.236 31.572 16.783C32.026 16.328 32.027 15.593 31.572 15.139C31.119 14.685 30.383 14.685 29.929 15.139ZM13.907 29.519C13.225 30.2 13.225 31.302 13.907 31.984C14.587 32.666 15.691 32.666 16.371 31.984C17.052 31.302 17.052 30.2 16.371 29.519C15.691 28.837 14.587 28.837 13.907 29.519ZM27.875 27.372C26.74 28.507 24.901 28.507 23.767 27.372C22.632 26.237 22.632 24.397 23.767 23.265C24.902 22.129 26.741 22.129 27.875 23.265C29.01 24.398 29.01 26.238 27.875 27.372Z" fill="#FFCC4D"/>
</svg>
