<svg width="35" height="35" viewBox="0 0 35 35" fill="none" xmlns="http://www.w3.org/2000/svg">
<path d="M15.5556 1.94444C15.5556 1.94444 15.5556 0 17.5 0C19.4444 0 19.4444 1.94444 19.4444 1.94444V3.88889C19.4444 3.88889 19.4444 5.83333 17.5 5.83333C15.5556 5.83333 15.5556 3.88889 15.5556 3.88889V1.94444ZM33.0556 15.5556C33.0556 15.5556 35 15.5556 35 17.5C35 19.4444 33.0556 19.4444 33.0556 19.4444H31.1111C31.1111 19.4444 29.1667 19.4444 29.1667 17.5C29.1667 15.5556 31.1111 15.5556 31.1111 15.5556H33.0556ZM3.88889 15.5556C3.88889 15.5556 5.83333 15.5556 5.83333 17.5C5.83333 19.4444 3.88889 19.4444 3.88889 19.4444H1.94444C1.94444 19.4444 0 19.4444 0 17.5C0 15.5556 1.94444 15.5556 1.94444 15.5556H3.88889ZM8.86764 7.09042C8.86764 7.09042 10.2424 8.46514 8.86764 9.83986C7.49292 11.2146 6.11819 9.83986 6.11819 9.83986L4.7425 8.46611C4.7425 8.46611 3.36778 7.09139 4.7425 5.71569C6.11819 4.34097 7.49292 5.71569 7.49292 5.71569L8.86764 7.09042ZM29.2843 27.5071C29.2843 27.5071 30.659 28.8818 29.2843 30.2565C27.9096 31.6312 26.5349 30.2565 26.5349 30.2565L25.1601 28.8818C25.1601 28.8818 23.7854 27.5071 25.1601 26.1324C26.5349 24.7576 27.9096 26.1324 27.9096 26.1324L29.2843 27.5071ZM28.8828 9.83986C28.8828 9.83986 27.5081 11.2146 26.1333 9.83986C24.7586 8.46514 26.1333 7.09042 26.1333 7.09042L27.5081 5.71569C27.5081 5.71569 28.8828 4.34097 30.2575 5.71569C31.6322 7.09042 30.2575 8.46514 30.2575 8.46514L28.8828 9.83986ZM8.46611 30.2565C8.46611 30.2565 7.09139 31.6312 5.71667 30.2565C4.34194 28.8818 5.71667 27.5071 5.71667 27.5071L7.09139 26.1324C7.09139 26.1324 8.46611 24.7576 9.84083 26.1324C11.2156 27.5071 9.84083 28.8818 9.84083 28.8818L8.46611 30.2565ZM15.5556 31.1111C15.5556 31.1111 15.5556 29.1667 17.5 29.1667C19.4444 29.1667 19.4444 31.1111 19.4444 31.1111V33.0556C19.4444 33.0556 19.4444 35 17.5 35C15.5556 35 15.5556 33.0556 15.5556 33.0556V31.1111Z" fill="#FFAC33"/>
<path d="M17.4996 27.2223C22.869 27.2223 27.2218 22.8695 27.2218 17.5001C27.2218 12.1306 22.869 7.77783 17.4996 7.77783C12.1301 7.77783 7.77734 12.1306 7.77734 17.5001C7.77734 22.8695 12.1301 27.2223 17.4996 27.2223Z" fill="#FFAC33"/>
</svg>
