<svg width="344" height="70" viewBox="0 0 344 70" fill="none" xmlns="http://www.w3.org/2000/svg">
<path d="M52 53C52.5523 53 53 52.5523 53 52C53 51.4477 52.5523 51 52 51C51.4477 51 51 51.4477 51 52C51 52.5523 51.4477 53 52 53Z" fill="#5B6876"/>
<path d="M30.1807 57H25.4639V37.3467C25.4639 34.4984 24.8486 32.2881 23.6182 30.7158C22.3877 29.1436 20.3939 28.3574 17.6367 28.3574C15.9049 28.3574 14.3327 28.7562 12.9199 29.5537C11.5299 30.3512 10.3451 31.4222 9.36523 32.7666C8.38542 34.0882 7.63346 35.6149 7.10938 37.3467C6.60807 39.0557 6.35742 40.8444 6.35742 42.7129V57H1.6748V25.1445H6.35742V33.1426C8.61328 27.3092 12.6351 24.3926 18.4229 24.3926C26.2614 24.3926 30.1807 28.7106 30.1807 37.3467V57ZM108.623 46.8486C108.258 50.1982 106.937 52.8643 104.658 54.8467C102.402 56.8063 99.5768 57.7861 96.1816 57.7861C94.3132 57.7861 92.6042 57.4785 91.0547 56.8633C89.5052 56.248 88.1836 55.3936 87.0898 54.2998C85.9961 53.2061 85.1416 51.8958 84.5264 50.3691C83.9339 48.8197 83.6377 47.1335 83.6377 45.3105V29.1436H76.4258V25.1445H83.6377V12.3955H88.3203V25.1445H101.89V29.1436H88.3203V45.3105C88.3203 46.4727 88.5026 47.5664 88.8672 48.5918C89.2546 49.6172 89.7786 50.5173 90.4395 51.292C91.123 52.0667 91.9434 52.682 92.9004 53.1377C93.8574 53.5706 94.9512 53.7871 96.1816 53.7871C98.5059 53.7871 100.443 53.0693 101.992 51.6338C103.564 50.1755 104.465 48.2956 104.692 45.9941L108.623 46.8486ZM119.321 42.7129C119.663 46.0853 120.894 48.7741 123.013 50.7793C125.132 52.7845 127.889 53.7871 131.284 53.7871C133.677 53.7871 135.807 53.2972 137.676 52.3174C139.544 51.3376 140.946 50.1185 141.88 48.6602L145.161 50.916C143.566 53.1491 141.663 54.8581 139.453 56.043C137.243 57.2051 134.52 57.7861 131.284 57.7861C128.823 57.7861 126.567 57.376 124.517 56.5557C122.466 55.7354 120.688 54.596 119.185 53.1377C117.703 51.6566 116.553 49.902 115.732 47.874C114.912 45.846 114.502 43.5902 114.502 41.1064C114.502 38.6911 114.867 36.4694 115.596 34.4414C116.348 32.3906 117.419 30.6247 118.809 29.1436C120.221 27.6396 121.93 26.4775 123.936 25.6572C125.941 24.8141 128.185 24.3926 130.669 24.3926C133.381 24.3926 135.75 24.8483 137.778 25.7598C139.806 26.6712 141.493 27.9359 142.837 29.5537C144.204 31.1488 145.207 33.0628 145.845 35.2959C146.506 37.529 146.836 40.0013 146.836 42.7129H119.321ZM141.88 38.7139C141.356 35.2275 140.091 32.6299 138.086 30.9209C136.081 29.2119 133.608 28.3574 130.669 28.3574C129.165 28.3574 127.775 28.6081 126.499 29.1094C125.223 29.5879 124.095 30.2829 123.115 31.1943C122.135 32.1058 121.315 33.2109 120.654 34.5098C119.993 35.7858 119.572 37.1872 119.39 38.7139H141.88ZM184.707 42.6445H152.852V38.6455H184.707V42.6445ZM190.996 48.3867C190.996 46.3815 191.497 44.7067 192.5 43.3623C193.503 41.9951 194.813 40.9242 196.431 40.1494C198.071 39.3519 199.94 38.7822 202.036 38.4404C204.155 38.0758 206.309 37.8936 208.496 37.8936C209.339 37.8936 210.091 37.9049 210.752 37.9277C211.436 37.9505 212.074 37.9847 212.666 38.0303C213.281 38.0758 213.896 38.1328 214.512 38.2012C215.127 38.2695 215.799 38.3493 216.528 38.4404V36.1504C216.528 34.6009 216.187 33.3249 215.503 32.3223C214.842 31.3197 214.022 30.5335 213.042 29.9639C212.062 29.3714 211.037 28.9613 209.966 28.7334C208.895 28.4827 207.983 28.3574 207.231 28.3574C204.862 28.3574 202.674 28.6764 200.669 29.3145C198.664 29.9525 196.795 30.807 195.063 31.8779L192.944 28.3574C194.858 27.1953 197 26.2497 199.37 25.5205C201.763 24.7686 204.383 24.3926 207.231 24.3926C208.963 24.3926 210.661 24.6204 212.324 25.0762C214.01 25.5091 215.514 26.1927 216.836 27.127C218.18 28.0384 219.251 29.2461 220.049 30.75C220.846 32.2539 221.245 34.054 221.245 36.1504V57H216.528V51.668C215.708 52.6934 214.774 53.5934 213.726 54.3682C212.7 55.1429 211.618 55.7809 210.479 56.2822C209.339 56.7607 208.2 57.1253 207.061 57.376C205.921 57.6494 204.839 57.7861 203.813 57.7861C199.598 57.7861 196.408 56.9772 194.243 55.3594C192.078 53.7415 190.996 51.4173 190.996 48.3867ZM203.813 53.7871C205.773 53.7871 207.528 53.5023 209.077 52.9326C210.649 52.3402 211.982 51.611 213.076 50.7451C214.17 49.8792 215.013 48.9564 215.605 47.9766C216.221 46.9967 216.528 46.1081 216.528 45.3105V42.3027C215.002 42.0749 213.532 41.9495 212.119 41.9268C210.729 41.904 209.521 41.8926 208.496 41.8926C206.81 41.8926 205.181 42.0065 203.608 42.2344C202.059 42.4622 200.703 42.8382 199.541 43.3623C198.379 43.8636 197.445 44.5244 196.738 45.3447C196.032 46.165 195.679 47.179 195.679 48.3867C195.679 49.7311 196.328 50.973 197.627 52.1123C198.949 53.2288 201.011 53.7871 203.813 53.7871ZM261.133 41.1064C261.133 43.5902 260.745 45.846 259.971 47.874C259.196 49.902 258.102 51.6566 256.689 53.1377C255.299 54.596 253.613 55.7354 251.631 56.5557C249.648 57.376 247.427 57.7861 244.966 57.7861C243.28 57.7861 241.639 57.4785 240.044 56.8633C238.472 56.248 237.002 55.3366 235.635 54.1289V69.749H230.952V25.1445H235.635V28.084C238.529 25.623 241.639 24.3926 244.966 24.3926C247.427 24.3926 249.648 24.8027 251.631 25.623C253.613 26.4206 255.299 27.5713 256.689 29.0752C258.102 30.5563 259.196 32.3337 259.971 34.4072C260.745 36.458 261.133 38.6911 261.133 41.1064ZM256.45 41.1064C256.45 39.3291 256.2 37.6657 255.698 36.1162C255.22 34.5439 254.491 33.1882 253.511 32.0488C252.531 30.9095 251.323 30.0094 249.888 29.3486C248.475 28.6878 246.834 28.3574 244.966 28.3574C243.188 28.3574 241.525 28.6878 239.976 29.3486C238.449 30.0094 237.002 31.0804 235.635 32.5615V49.6514C237.002 51.1325 238.449 52.1921 239.976 52.8301C241.525 53.4681 243.188 53.7871 244.966 53.7871C246.834 53.7871 248.475 53.4567 249.888 52.7959C251.323 52.1351 252.531 51.235 253.511 50.0957C254.491 48.9564 255.22 47.6234 255.698 46.0967C256.2 44.5472 256.45 42.8838 256.45 41.1064ZM299.346 41.1064C299.346 43.5902 298.958 45.846 298.184 47.874C297.409 49.902 296.315 51.6566 294.902 53.1377C293.512 54.596 291.826 55.7354 289.844 56.5557C287.861 57.376 285.64 57.7861 283.179 57.7861C281.493 57.7861 279.852 57.4785 278.257 56.8633C276.685 56.248 275.215 55.3366 273.848 54.1289V69.749H269.165V25.1445H273.848V28.084C276.742 25.623 279.852 24.3926 283.179 24.3926C285.64 24.3926 287.861 24.8027 289.844 25.623C291.826 26.4206 293.512 27.5713 294.902 29.0752C296.315 30.5563 297.409 32.3337 298.184 34.4072C298.958 36.458 299.346 38.6911 299.346 41.1064ZM294.663 41.1064C294.663 39.3291 294.412 37.6657 293.911 36.1162C293.433 34.5439 292.703 33.1882 291.724 32.0488C290.744 30.9095 289.536 30.0094 288.101 29.3486C286.688 28.6878 285.047 28.3574 283.179 28.3574C281.401 28.3574 279.738 28.6878 278.188 29.3486C276.662 30.0094 275.215 31.0804 273.848 32.5615V49.6514C275.215 51.1325 276.662 52.1921 278.188 52.8301C279.738 53.4681 281.401 53.7871 283.179 53.7871C285.047 53.7871 286.688 53.4567 288.101 52.7959C289.536 52.1351 290.744 51.235 291.724 50.0957C292.703 48.9564 293.433 47.6234 293.911 46.0967C294.412 44.5472 294.663 42.8838 294.663 41.1064ZM324.81 57H318.452V50.6426H324.81V57Z" fill="#24292E"/>
<path d="M55 57C64.9411 57 73 48.9411 73 39C73 29.0589 64.9411 21 55 21C45.0589 21 37 29.0589 37 39C37 48.9411 45.0589 57 55 57Z" fill="#66757F"/>
<path d="M47.5 33C49.433 33 51 31.433 51 29.5C51 27.567 49.433 26 47.5 26C45.567 26 44 27.567 44 29.5C44 31.433 45.567 33 47.5 33Z" fill="#5B6876"/>
<path d="M57 41C58.6569 41 60 39.6569 60 38C60 36.3431 58.6569 35 57 35C55.3431 35 54 36.3431 54 38C54 39.6569 55.3431 41 57 41Z" fill="#5B6876"/>
<path d="M61.5 53C63.433 53 65 51.433 65 49.5C65 47.567 63.433 46 61.5 46C59.567 46 58 47.567 58 49.5C58 51.433 59.567 53 61.5 53Z" fill="#5B6876"/>
<path d="M59 28C60.1046 28 61 27.1046 61 26C61 24.8954 60.1046 24 59 24C57.8954 24 57 24.8954 57 26C57 27.1046 57.8954 28 59 28Z" fill="#5B6876"/>
<path d="M40 40C40.5523 40 41 39.5523 41 39C41 38.4477 40.5523 38 40 38C39.4477 38 39 38.4477 39 39C39 39.5523 39.4477 40 40 40Z" fill="#5B6876"/>
<path d="M67 31C67.5523 31 68 30.5523 68 30C68 29.4477 67.5523 29 67 29C66.4477 29 66 29.4477 66 30C66 30.5523 66.4477 31 67 31Z" fill="#5B6876"/>
<path d="M69 42C70.1046 42 71 41.1046 71 40C71 38.8954 70.1046 38 69 38C67.8954 38 67 38.8954 67 40C67 41.1046 67.8954 42 69 42Z" fill="#5B6876"/>
<path d="M47 46C48.1046 46 49 45.1046 49 44C49 42.8954 48.1046 42 47 42C45.8954 42 45 42.8954 45 44C45 45.1046 45.8954 46 47 46Z" fill="#5B6876"/>
</svg>
